<?xml version="1.0" encoding="UTF-8"?>
<svg xmlns="http://www.w3.org/2000/svg" xmlns:xlink="http://www.w3.org/1999/xlink" viewBox="0 0 24 24" width="24px" height="24px">
<g id="surface55575584">
<path style=" stroke:none;fill-rule:nonzero;fill:rgb(58.431375%,32.549021%,93.333334%);fill-opacity:1;" d="M -1.417969 -5.25 C -3.535156 -5.25 -5.25 -3.535156 -5.25 -1.417969 L -5.25 25.417969 C -5.25 27.535156 -3.535156 29.25 -1.417969 29.25 L 25.417969 29.25 C 27.535156 29.25 29.25 27.535156 29.25 25.417969 L 29.25 -1.417969 C 29.25 -3.535156 27.535156 -5.25 25.417969 -5.25 Z M 10.082031 0.5 C 15.375 0.5 19.667969 4.792969 19.667969 10.082031 C 19.667969 12.035156 19.078125 13.847656 18.070312 15.363281 L 22.9375 20.226562 C 23.6875 20.976562 23.6875 22.191406 22.9375 22.9375 C 22.1875 23.6875 20.976562 23.6875 20.226562 22.9375 L 15.363281 18.070312 C 13.847656 19.078125 12.035156 19.667969 10.082031 19.667969 C 4.792969 19.667969 0.5 15.375 0.5 10.082031 C 0.5 4.792969 4.792969 0.5 10.082031 0.5 Z M 10.082031 4.332031 C 6.90625 4.332031 4.332031 6.90625 4.332031 10.082031 C 4.332031 13.257812 6.90625 15.832031 10.082031 15.832031 C 13.257812 15.832031 15.832031 13.257812 15.832031 10.082031 C 15.832031 6.90625 13.257812 4.332031 10.082031 4.332031 Z M 10.082031 4.332031 "/>
</g>
</svg>
